<svg xmlns="http://www.w3.org/2000/svg" version="1.1" xmlns:xlink="http://www.w3.org/1999/xlink" xmlns:svgjs="http://svgjs.com/svgjs" width="512" height="512"><svg width="512" height="512" viewBox="0 0 512 512" fill="none" xmlns="http://www.w3.org/2000/svg">
<rect width="512" height="512" rx="8" fill="#EEEEEE"></rect>
<path d="M93.2089 335.688C83.6308 322.082 79.051 305.805 80.1923 289.426V222.574C78.9841 206.075 83.4946 189.655 93.0229 175.867C101.639 165.23 116.36 159.941 137.186 160C158.013 160.06 172.114 164.725 179.49 173.995C188.484 185.483 192.873 199.686 191.856 214.017V229.705H153.364V212.68C153.312 208.2 152.908 203.731 152.155 199.31C151.69 196.109 150.157 193.138 147.785 190.842C146.321 189.638 144.622 188.726 142.786 188.16C140.95 187.594 139.015 187.384 137.093 187.544C134.334 187.149 131.515 187.579 129.019 188.775C126.524 189.971 124.473 191.876 123.147 194.229C120.702 200.489 119.626 207.163 119.986 213.839V298.696C119.562 305.416 120.804 312.136 123.612 318.306C124.953 320.532 126.944 322.334 129.339 323.49C131.734 324.646 134.429 325.106 137.093 324.813C139.711 325.168 142.379 324.722 144.716 323.537C147.054 322.353 148.941 320.491 150.11 318.217C152.359 311.946 153.337 305.32 152.992 298.696V280.869H191.484V296.29C192.617 310.832 188.587 325.314 180.048 337.382C171.866 347.187 157.734 352 137.651 352C117.568 352 101.856 346.652 93.2089 335.688Z" fill="#111111"></path>
<path d="M243.345 160H284.918L320 352H285.444L279.217 309.577H250.099L243.082 351.726H208L243.345 160ZM275.358 285.44L264.307 208.274L253.344 285.44H275.358Z" fill="#111111"></path>
<path d="M349.015 188.933H320V160H416V188.933H387.343V352H348.925L349.015 188.933Z" fill="#111111"></path>
</svg><style>@media (prefers-color-scheme: light) { :root { filter: none; } }
</style></svg>