<?xml version="1.0" standalone="no"?>
<!DOCTYPE svg PUBLIC "-//W3C//DTD SVG 20010904//EN" "http://www.w3.org/TR/2001/REC-SVG-20010904/DTD/svg10.dtd">
<svg version="1.0" xmlns="http://www.w3.org/2000/svg"
  width="700.000000pt" height="700.000000pt" viewBox="0 0 700.000000 700.000000"
  preserveAspectRatio="xMidYMid meet">
  <metadata> Created by potrace 1.14, written by Peter Selinger 2001-2017 </metadata>
  <g transform="translate(0.000000,700.000000) scale(0.100000,-0.100000)"
    fill="#000000" stroke="none">
    <path
      d="M48 6977 c-14 -12 -31 -32 -37 -44 -8 -16 -11 -981 -11 -3428 0
-3730 -5 -3457 59 -3489 27 -14 364 -16 3441 -16 3751 0 3451 -5 3485 60 13
26 15 411 15 3440 0 3751 5 3451 -60 3485 -26 13 -411 15 -3447 15 l-3418 0
-27 -23z" />
  </g>
</svg>